<svg id="Layer_1" data-name="Layer 1" xmlns="http://www.w3.org/2000/svg" viewBox="0 0 1642.23 400.2"><defs><style>.cls-1{fill:#fefefe;}.cls-2,.cls-3{fill:#ffcb37;}.cls-3{font-size:213.43px;font-family:Helvetica-Bold, Helvetica;font-weight:700;}.cls-4{fill:#000;}</style></defs><path class="cls-1" d="M1551.14,82.38c-13.07,5.32-29.22,14.13-45.39,23-6.22,3.41-4.46,5.45-.55,8.76,9.8,8.3,19.21,17.07,29.29,25,32.39,25.51,66.38,48.31,106.32,60.63,23.52,7.26,46.58,9.56,70.12-1.32,45.5-21,59.13-79.32,27-117.82-19.76-23.72-45.88-30.13-75.16-28.57C1624.92,54.06,1589.53,65.48,1551.14,82.38Zm-6.2,278.93a61.4,61.4,0,0,0,18.59-14.16c20.4-23.23,20.33-54.46.34-83.18-24.67-35.44-59-59.56-94.8-82.08-4.7-3-6.39-.91-7.3,3.55-9.23,44.82-15.07,89.63-2.34,134.9C1469.65,356.67,1509,376.69,1544.94,361.31Zm75.41-61.09c1.88,6,7.66,15,12.7,24.3,11,20.21,24.17,38.84,42.33,53.37,27.85,22.28,67.48,17.42,87.63-10.59,20.26-28.16,12.71-67.05-16.91-86.67a135.8,135.8,0,0,0-30.63-15.36c-35-12.06-71.31-15.59-108-16.85-4.27-.15-5.28.94-4,5.18C1607.93,268,1613.13,282.13,1620.35,300.22Z" transform="translate(-132.15 -51.83)"/><path class="cls-2" d="M1551.14,82.38c38.39-16.9,73.78-28.32,111.68-30.33,29.28-1.56,55.4,4.85,75.16,28.57,32.08,38.5,18.45,96.81-27,117.82-23.54,10.88-46.6,8.58-70.12,1.32-39.94-12.32-73.93-35.12-106.32-60.63-10.08-7.94-19.49-16.71-29.29-25-3.91-3.31-5.67-5.35.55-8.76C1521.92,96.51,1538.07,87.7,1551.14,82.38Z" transform="translate(-132.15 -51.83)"/><path class="cls-2" d="M1544.94,361.31c-36,15.38-75.29-4.64-85.51-41-12.73-45.27-6.89-90.08,2.34-134.9.91-4.46,2.6-6.51,7.3-3.55,35.8,22.52,70.13,46.64,94.8,82.08,20,28.72,20.06,59.95-.34,83.18A61.4,61.4,0,0,1,1544.94,361.31Z" transform="translate(-132.15 -51.83)"/><path class="cls-2" d="M1620.35,300.22c-7.22-18.09-12.42-32.21-16.86-46.62-1.3-4.24-.29-5.33,4-5.18,36.69,1.26,73,4.79,108,16.85a135.8,135.8,0,0,1,30.63,15.36c29.62,19.62,37.17,58.51,16.91,86.67-20.15,28-59.78,32.87-87.63,10.59-18.16-14.53-31.36-33.16-42.33-53.37C1628,315.22,1622.23,306.22,1620.35,300.22Z" transform="translate(-132.15 -51.83)"/><text class="cls-3" transform="translate(0 297.55)">yellow<tspan class="cls-4" x="652.38" y="0">pages</tspan></text></svg>